control3min_grf.mot
version=1
nRows=12
nColumns 19
inDegrees=yes
endheader
time	1_ground_force_vx	1_ground_force_vy	1_ground_force_vz	1_ground_force_px	1_ground_force_py	1_ground_force_pz	1_ground_torque_x	1_ground_torque_y	1_ground_torque_z	2_ground_force_vx	2_ground_force_vy	2_ground_force_vz	2_ground_force_px	2_ground_force_py	2_ground_force_pz	2_ground_torque_x	2_ground_torque_y	2_ground_torque_z
            1.253500	           -1.434719	          620.078084	          -31.088662	           -0.244209	            0.006234	           -0.408297	           -0.002585	            1.117256	           -0.056016	            2.851348	          486.227604	           36.694777	           -0.284700	            0.005422	           -0.688190	           -0.014889	           -2.538914	           -0.191608
            1.254000	           -0.973840	          615.388574	          -30.467913	           -0.243886	            0.006232	           -0.407925	           -0.001896	            1.197969	           -0.059311	            3.145492	          482.547691	           36.118379	           -0.284587	            0.005422	           -0.688214	           -0.016967	           -2.602951	           -0.194829
            1.254500	           -0.787494	          609.076195	          -29.761727	           -0.243868	            0.006234	           -0.408286	           -0.001431	            1.106567	           -0.054071	            3.347993	          478.314455	           35.680834	           -0.284268	            0.005423	           -0.688145	           -0.017984	           -2.569287	           -0.191661
            1.255000	           -0.785809	          604.207554	          -29.461610	           -0.243968	            0.006234	           -0.408255	           -0.001211	            0.930766	           -0.045385	            3.551035	          473.898083	           34.961064	           -0.284456	            0.005423	           -0.688176	           -0.018449	           -2.462059	           -0.181634
            1.255500	           -0.416843	          599.518419	          -28.932342	           -0.243629	            0.006233	           -0.408067	           -0.000553	            0.794879	           -0.038360	            3.564746	          470.032953	           34.384128	           -0.284208	            0.005423	           -0.688059	           -0.018608	           -2.453541	           -0.179483
            1.256000	           -0.185308	          594.288369	          -28.405056	           -0.243671	            0.006233	           -0.408046	           -0.000249	            0.797914	           -0.038138	            3.767123	          465.800721	           33.665014	           -0.284184	            0.005423	           -0.688031	           -0.020680	           -2.557062	           -0.184808
            1.256500	            0.090884	          588.700020	          -28.383845	           -0.243749	            0.006233	           -0.408155	            0.000121	            0.786506	           -0.037921	            3.875862	          461.567649	           33.086725	           -0.283962	            0.005424	           -0.687919	           -0.021923	           -2.610707	           -0.187144
            1.257000	            0.504799	          583.291479	          -28.270490	           -0.243573	            0.006233	           -0.408212	            0.000826	            0.953862	           -0.046231	            3.704852	          456.965113	           32.554169	           -0.283751	            0.005423	           -0.687516	           -0.020693	           -2.552361	           -0.181830
            1.257500	            0.552993	          579.142656	          -27.646399	           -0.243450	            0.006232	           -0.407901	            0.000890	            0.931962	           -0.044489	            3.485724	          452.730187	           32.163731	           -0.283743	            0.005423	           -0.687432	           -0.019240	           -2.498968	           -0.177536
            1.258000	            0.921736	          571.930920	          -27.403093	           -0.243192	            0.006234	           -0.408429	            0.001442	            0.894906	           -0.042878	            3.500702	          448.497340	           31.444698	           -0.283586	            0.005423	           -0.687388	           -0.018229	           -2.335424	           -0.163739
            1.258500	            1.199112	          567.962437	          -26.778797	           -0.243118	            0.006234	           -0.408262	            0.001648	            0.780538	           -0.036801	            3.797526	          444.080636	           30.912600	           -0.283456	            0.005424	           -0.687461	           -0.020383	           -2.383635	           -0.165926
            1.259000	            1.384804	          562.732378	          -26.251398	           -0.243069	            0.006234	           -0.408243	            0.001723	            0.700158	           -0.032662	            4.188797	          439.479399	           30.567517	           -0.283426	            0.005423	           -0.687176	           -0.023269	           -2.441291	           -0.169801
